<svg xmlns="http://www.w3.org/2000/svg" width="1200" height="360" viewBox="0 0 1200 360"><rect width="1200" height="360" fill="#111827"/><text x="40" y="52" fill="#f9fafb" font-family="Arial" font-size="28" font-weight="700">TutorOps - Gerador de Aula IA</text><text x="40" y="92" fill="#d1d5db" font-family="Arial" font-size="16">Fluxo n8n para apoio docente com Google Sheets, IA local via Ollama e Telegram</text><g font-family="Arial" font-size="15" fill="#f9fafb"><rect x="50" y="150" width="140" height="70" rx="14" fill="#065f46"/><text x="76" y="190">Manual Trigger</text><rect x="235" y="150" width="120" height="70" rx="14" fill="#166534"/><text x="266" y="190">Ler Aula</text><rect x="400" y="150" width="180" height="70" rx="14" fill="#1e3a8a"/><text x="426" y="182">Gerar Plano</text><text x="452" y="202">de Aula IA</text><rect x="625" y="150" width="170" height="70" rx="14" fill="#7c2d12"/><text x="650" y="190">Preparar Dados</text><rect x="840" y="150" width="150" height="70" rx="14" fill="#166534"/><text x="872" y="190">Atualizar Aula</text><rect x="1035" y="150" width="120" height="70" rx="14" fill="#0369a1"/><text x="1060" y="190">Telegram</text></g><g stroke="#22c55e" stroke-width="4" fill="none"><path d="M190 185 H235"/><path d="M355 185 H400"/><path d="M580 185 H625"/><path d="M795 185 H840"/><path d="M990 185 H1035"/></g><text x="410" y="270" fill="#d1d5db" font-family="Arial" font-size="16">Ollama Chat Model: llama3.2:3b</text></svg>
